<svg xmlns="http://www.w3.org/2000/svg" xmlns:xlink="http://www.w3.org/1999/xlink" version="1.1" viewBox="0 0 85 100" overflow="visible" enable-background="new 0 0 84.781 76.277" xml:space="preserve" x="0px" y="0px"><path d="M6.705,23.727c16.313,0.902,31.229,3.124,45.549,11.704c8.004,4.796,13.625,10.501,18.666,18.265  c4.445,6.848,5.148,14.697,6.311,22.582c2.465-0.374,7.953,0.237,7.525-2.672c-0.914-6.228-1.523-12.656-4.068-18.478  C76.106,44.643,67.756,35.68,58.11,29.816c-11.072-6.747-22.944-11.114-35.783-12.848c-4.117-0.556-8.283-0.68-12.429-0.907  c-1.999-0.11-2.502-0.718-2.668,1.285C7.055,19.473,6.88,21.6,6.705,23.727"/><path d="M26.728,3.765c-2.283,1.846-4.417,3.332-7.022,4.716c-3.288,1.746-6.895,2.366-9.785,4.734  C5.969,15.982,4.656,16.982,0,19.482c6.219,7.156,14.781,15.099,19.712,24.404c2.558-1.479,5.114-2.958,7.672-4.436  c0.405-0.234-3.036-5.938-3.598-6.848c-2.388-3.875-7.457-7.69-10.965-10.872c6.092-2.603,12.75-5.539,18.057-9.735  c0.908-0.717,6.247-4.873,6.031-5.135c-1.88-2.287-3.76-4.574-5.641-6.86C29.755,1.254,28.242,2.51,26.728,3.765 M14.622,20.961  L14.622,20.961L14.622,20.961z M19.311,27.875L19.311,27.875z"/></svg>